<?xml version="1.0" encoding="iso-8859-1"?>
<!-- Generator: Adobe Illustrator 19.0.0, SVG Export Plug-In . SVG Version: 6.00 Build 0)  -->
<svg xmlns="http://www.w3.org/2000/svg" xmlns:xlink="http://www.w3.org/1999/xlink" version="1.1" id="Capa_1" x="0px" y="0px" viewBox="0 0 512 512" style="enable-background:new 0 0 512 512;" xml:space="preserve" width="512" height="512">
<g>
	<path d="M388.04,62H199.091c-4.142,0-7.5,3.358-7.5,7.5s3.358,7.5,7.5,7.5H388.04c4.142,0,7.5-3.358,7.5-7.5S392.182,62,388.04,62z   "/>
	<path d="M388.04,117.801H199.091c-4.142,0-7.5,3.358-7.5,7.5s3.358,7.5,7.5,7.5H388.04c4.142,0,7.5-3.358,7.5-7.5   S392.182,117.801,388.04,117.801z"/>
	<path d="M388.04,173.601H311.5c-4.142,0-7.5,3.358-7.5,7.5s3.358,7.5,7.5,7.5h76.54c4.142,0,7.5-3.358,7.5-7.5   S392.182,173.601,388.04,173.601z"/>
	<path d="M462.354,204.219h-9.475V125.3c0-4.142-3.358-7.5-7.5-7.5s-7.5,3.358-7.5,7.5v78.919H296.436   c-2.635,0-5.083-1.53-6.238-3.897l-18.241-37.396c-3.651-7.485-11.391-12.321-19.719-12.321H149.25V104.96   c0-0.02,0.003-0.039,0.003-0.058V25.199c0-1.356-0.111-2.687-0.318-3.985c-0.005-0.029-0.011-0.058-0.016-0.088   c-0.065-0.397-0.138-0.791-0.221-1.182c-0.013-0.062-0.029-0.122-0.042-0.183c-0.079-0.357-0.163-0.712-0.257-1.063   c-0.021-0.08-0.046-0.159-0.068-0.239c-0.092-0.33-0.188-0.659-0.293-0.984c-0.03-0.091-0.062-0.182-0.092-0.273   c-0.104-0.31-0.212-0.617-0.327-0.921c-0.038-0.1-0.079-0.199-0.118-0.299c-0.115-0.292-0.234-0.583-0.36-0.87   c-0.016-0.037-0.03-0.076-0.047-0.113H418.83c10.504,0,19.05,8.546,19.05,19.05V95.3c0,4.142,3.358,7.5,7.5,7.5s7.5-3.358,7.5-7.5   V34.05C452.88,15.275,437.605,0,418.83,0H124.05c-0.006,0-0.011,0.001-0.017,0.001c-11.491,0.009-21.515,7.783-24.382,18.912   l-21.669,84.118c-0.579,2.246-0.086,4.633,1.334,6.465c1.421,1.833,3.609,2.906,5.928,2.906h49.005v38.202h-9.474   c-12.098,0-21.941,9.842-21.941,21.94v64.284c0,4.142,3.358,7.5,7.5,7.5s7.5-3.358,7.5-7.5v-64.284c0-3.827,3.114-6.94,6.941-6.94   h127.46c2.634,0,5.083,1.53,6.238,3.897l18.241,37.396c3.651,7.485,11.392,12.321,19.72,12.321h148.915   c0.01,0,0.019,0.001,0.029,0.001s0.019-0.001,0.029-0.001h16.946c3.827,0,6.94,3.113,6.94,6.94v232.9   c0,3.827-3.113,6.941-6.94,6.941H276.858c-4.142,0-7.5,3.358-7.5,7.5s3.358,7.5,7.5,7.5h185.497c12.098,0,21.94-9.843,21.94-21.941   v-232.9C484.295,214.061,474.453,204.219,462.354,204.219z M94.921,97.402l19.255-74.748c1.161-4.506,5.221-7.654,9.875-7.655   c5.624,0.001,10.198,4.576,10.198,10.2v72.202H94.921z"/>
	<path d="M289.993,380.843c0-72.313-58.831-131.144-131.144-131.144S27.705,308.53,27.705,380.843   c0,43.517,21.519,84.111,57.564,108.591c0.001,0.001,0.003,0.002,0.004,0.003c14.95,10.148,31.648,17.007,49.198,20.303   c7.977,1.498,16.131,2.26,24.377,2.26c8.246,0,16.4-0.762,24.377-2.26c17.55-3.296,34.248-10.155,49.198-20.303   c0.001-0.001,0.002-0.002,0.003-0.003C268.473,464.956,289.993,424.361,289.993,380.843z M135.335,446.98   c0.214-0.016,0.439-0.029,0.656-0.044c0.254-0.017,0.508-0.037,0.763-0.05c0.214-0.009,0.426-0.01,0.641-0.021   c0.482-0.021,0.976-0.031,1.468-0.031h39.97c0.493,0,0.986,0.01,1.468,0.031c0.211,0.009,0.401,0.01,0.652,0.021   c0.297,0.015,0.593,0.037,0.889,0.058c0.166,0.012,0.339,0.021,0.5,0.033c0.05,0.004,0.096,0.01,0.146,0.014l-23.64,37.092   l-23.64-37.092C135.25,446.989,135.294,446.983,135.335,446.98z M219.989,479.621c-0.881,0.547-1.771,1.077-2.665,1.599   c-0.248,0.145-0.492,0.299-0.741,0.442c-1.214,0.697-2.439,1.371-3.674,2.022c-0.31,0.163-0.626,0.314-0.937,0.474   c-0.927,0.478-1.855,0.952-2.792,1.403c-0.461,0.222-0.928,0.428-1.391,0.644c-0.797,0.371-1.593,0.742-2.397,1.094   c-0.519,0.228-1.044,0.441-1.567,0.66c-0.757,0.318-1.514,0.637-2.278,0.938c-0.551,0.218-1.107,0.423-1.661,0.633   c-0.744,0.281-1.489,0.561-2.239,0.826c-0.571,0.202-1.146,0.394-1.72,0.588c-0.741,0.249-1.484,0.495-2.23,0.729   c-0.585,0.184-1.173,0.36-1.762,0.534c-0.743,0.22-1.488,0.435-2.236,0.64c-0.596,0.164-1.193,0.322-1.791,0.476   c-0.75,0.193-1.501,0.378-2.255,0.555c-0.601,0.142-1.203,0.281-1.806,0.413c-0.759,0.166-1.522,0.322-2.285,0.473   c-0.603,0.12-1.207,0.239-1.812,0.349c-0.775,0.141-1.553,0.268-2.331,0.393c-0.598,0.096-1.195,0.195-1.795,0.281   c-0.799,0.115-1.601,0.215-2.403,0.314c-0.585,0.072-1.168,0.15-1.755,0.213c-0.841,0.091-1.686,0.162-2.53,0.235   c-0.087,0.007-0.173,0.015-0.26,0.022l28.883-45.318C208.863,456.863,217.165,467.324,219.989,479.621z M120.138,451.256   l28.883,45.318c-0.089-0.008-0.177-0.016-0.266-0.023c-0.842-0.073-1.684-0.144-2.523-0.234c-0.587-0.063-1.172-0.141-1.757-0.213   c-0.801-0.099-1.602-0.198-2.399-0.313c-0.602-0.087-1.201-0.186-1.8-0.282c-0.777-0.125-1.554-0.252-2.327-0.392   c-0.606-0.11-1.21-0.229-1.814-0.349c-0.762-0.151-1.523-0.306-2.282-0.472c-0.605-0.133-1.209-0.272-1.812-0.414   c-0.752-0.177-1.502-0.362-2.25-0.554c-0.6-0.154-1.198-0.313-1.795-0.477c-0.746-0.205-1.489-0.419-2.23-0.638   c-0.591-0.175-1.182-0.352-1.77-0.537c-0.742-0.233-1.481-0.478-2.219-0.726c-0.578-0.194-1.157-0.388-1.732-0.592   c-0.744-0.264-1.483-0.541-2.222-0.82c-0.56-0.211-1.121-0.419-1.677-0.639c-0.756-0.299-1.506-0.615-2.257-0.93   c-0.529-0.223-1.061-0.438-1.587-0.669c-0.792-0.347-1.576-0.713-2.361-1.078c-0.476-0.221-0.955-0.433-1.428-0.661   c-0.915-0.441-1.821-0.904-2.726-1.37c-0.333-0.171-0.671-0.333-1.003-0.507c-1.232-0.649-2.454-1.321-3.664-2.016   c-0.275-0.158-0.544-0.328-0.817-0.488c-0.87-0.509-1.736-1.024-2.594-1.556C100.532,467.324,108.834,456.863,120.138,451.256z    M232.896,470.339c-5.664-16.266-18.555-29.458-35.179-35.27c-0.235-0.106-0.478-0.202-0.726-0.284   c-0.675-0.225-1.351-0.437-2.027-0.635c-0.074-0.023-0.15-0.046-0.233-0.071c-0.116-0.037-0.232-0.072-0.35-0.103   c-0.541-0.145-1.094-0.29-1.725-0.455c-0.029-0.007-0.06-0.013-0.089-0.02c-0.244-0.06-0.49-0.109-0.734-0.166   c-0.411-0.095-0.821-0.194-1.232-0.279c-0.041-0.01-0.082-0.018-0.123-0.027c-0.954-0.198-1.913-0.369-2.875-0.518   c-0.481-0.078-0.957-0.15-1.391-0.205l-0.449-0.059c-0.645-0.077-1.294-0.142-1.965-0.198c-0.251-0.022-0.503-0.041-0.755-0.06   c-0.429-0.031-0.861-0.061-1.319-0.084c-0.058-0.003-0.114-0.003-0.171-0.006c-0.905-0.043-1.811-0.071-2.72-0.071h-39.967   c-0.878,0-1.754,0.025-2.629,0.066c-0.1,0.004-0.198,0.008-0.305,0.013c-0.267,0.014-0.545,0.036-0.815,0.054   c-0.896,0.059-1.791,0.135-2.682,0.236c-0.176,0.02-0.347,0.031-0.525,0.052l-0.325,0.042c-0.235,0.03-0.458,0.071-0.69,0.104   c-1.251,0.176-2.497,0.386-3.735,0.646c-0.021,0.005-0.043,0.009-0.064,0.014c-0.617,0.127-1.25,0.27-1.91,0.432   c-0.023,0.006-0.046,0.011-0.069,0.016c-0.052,0.013-0.101,0.024-0.154,0.037c-0.553,0.145-1.107,0.29-1.647,0.435   c-0.119,0.032-0.236,0.066-0.353,0.104c-0.077,0.023-0.154,0.046-0.232,0.071c-0.675,0.198-1.349,0.409-2.023,0.634   c-0.247,0.082-0.487,0.176-0.721,0.283c-16.628,5.81-29.521,19.003-35.186,35.271c-26.54-21.982-42.096-54.682-42.096-89.496   c0-64.042,52.102-116.144,116.144-116.144s116.144,52.102,116.144,116.144C274.993,415.658,259.436,448.358,232.896,470.339z"/>
	<path d="M213.078,335.419c-0.049-0.782-0.108-1.562-0.19-2.335c-0.022-0.204-0.054-0.406-0.078-0.61   c-0.088-0.751-0.185-1.5-0.304-2.241c-0.033-0.208-0.075-0.413-0.111-0.62c-0.126-0.734-0.262-1.464-0.417-2.187   c-0.047-0.218-0.101-0.434-0.151-0.652c-0.161-0.704-0.33-1.404-0.518-2.098c-0.064-0.238-0.135-0.474-0.202-0.711   c-0.189-0.661-0.387-1.318-0.6-1.969c-0.087-0.267-0.179-0.533-0.271-0.798c-0.209-0.606-0.426-1.207-0.656-1.803   c-0.116-0.303-0.235-0.604-0.357-0.904c-0.22-0.542-0.449-1.079-0.686-1.612c-0.151-0.342-0.304-0.683-0.463-1.021   c-0.221-0.47-0.451-0.935-0.685-1.398c-0.194-0.386-0.388-0.771-0.591-1.152c-0.207-0.387-0.424-0.768-0.641-1.149   c-0.248-0.439-0.494-0.878-0.754-1.31c-0.165-0.273-0.339-0.538-0.509-0.808c-1.644-2.622-3.514-5.11-5.601-7.437   c-0.095-0.106-0.187-0.216-0.283-0.322c-0.443-0.486-0.901-0.959-1.363-1.429c-0.187-0.191-0.371-0.383-0.56-0.571   c-0.423-0.419-0.858-0.829-1.296-1.236c-0.248-0.231-0.497-0.46-0.75-0.686c-0.205-0.183-0.4-0.376-0.608-0.556   c-0.077-0.072-0.156-0.142-0.236-0.21c-0.098-0.084-0.198-0.166-0.291-0.24c-0.167-0.141-0.336-0.275-0.504-0.414   c-0.003-0.003-0.007-0.005-0.01-0.008c-0.248-0.205-0.496-0.414-0.745-0.612c-0.196-0.156-0.394-0.31-0.591-0.462   c-0.225-0.174-0.45-0.339-0.675-0.508c-0.023-0.017-0.046-0.034-0.069-0.052c-0.145-0.108-0.29-0.221-0.433-0.326   c-0.237-0.174-0.475-0.345-0.706-0.508c-0.315-0.223-0.634-0.44-0.956-0.657c-0.002-0.001-0.004-0.003-0.006-0.004   c-0.051-0.034-0.1-0.07-0.152-0.104c-0.273-0.183-0.546-0.365-0.823-0.542c-0.334-0.215-0.672-0.425-1.005-0.629   c-0.05-0.031-0.104-0.062-0.154-0.093c-0.053-0.032-0.106-0.064-0.159-0.096c-0.219-0.134-0.435-0.267-0.667-0.403   c-0.237-0.138-0.477-0.273-0.716-0.407l-0.158-0.088c-0.148-0.083-0.299-0.164-0.448-0.247c-0.109-0.06-0.217-0.121-0.327-0.18   c-0.121-0.066-0.241-0.135-0.364-0.2c-0.148-0.079-0.297-0.154-0.446-0.229l-0.156-0.079c-0.126-0.065-0.256-0.119-0.382-0.183   c-0.684-0.345-1.376-0.675-2.076-0.992c-0.243-0.11-0.486-0.224-0.73-0.331c-0.718-0.313-1.446-0.606-2.18-0.888   c-0.222-0.085-0.442-0.18-0.664-0.262c-0.885-0.326-1.78-0.631-2.685-0.911c-0.459-0.143-0.924-0.264-1.387-0.395   c-0.466-0.131-0.93-0.265-1.401-0.384c-0.521-0.132-1.045-0.248-1.57-0.363c-0.431-0.095-0.864-0.188-1.299-0.273   c-0.523-0.102-1.049-0.196-1.576-0.282c-0.469-0.077-0.941-0.145-1.414-0.21c-0.491-0.067-0.982-0.135-1.476-0.188   c-0.577-0.063-1.158-0.108-1.74-0.153c-0.4-0.031-0.797-0.07-1.199-0.092c-0.997-0.055-2-0.087-3.01-0.087   c-29.968,0-54.349,24.381-54.349,54.349v4.331v18.256c0,29.968,24.381,54.35,54.349,54.35s54.35-24.381,54.35-54.35v-22.587   c0-0.972-0.028-1.937-0.079-2.897C213.11,335.78,213.089,335.6,213.078,335.419z M161.027,299.573   c0.292,0.016,0.581,0.044,0.871,0.066c0.419,0.032,0.838,0.065,1.255,0.11c0.359,0.039,0.716,0.088,1.073,0.137   c0.34,0.046,0.68,0.096,1.018,0.151c0.383,0.063,0.765,0.131,1.144,0.205c0.313,0.061,0.625,0.128,0.936,0.197   c0.38,0.084,0.761,0.168,1.137,0.263c0.343,0.086,0.682,0.184,1.023,0.28c0.331,0.093,0.663,0.181,0.99,0.282   c0.658,0.205,1.312,0.425,1.96,0.665c0.126,0.047,0.249,0.1,0.375,0.148c0.571,0.218,1.139,0.447,1.702,0.693   c0.139,0.06,0.275,0.125,0.413,0.187c0.557,0.251,1.111,0.514,1.66,0.793c0.283,0.143,0.567,0.284,0.846,0.434   c0.149,0.082,0.303,0.166,0.462,0.256c0.386,0.214,0.768,0.433,1.146,0.66c0.115,0.07,0.229,0.137,0.345,0.209   c0.017,0.01,0.034,0.021,0.051,0.032c0.433,0.267,0.862,0.541,1.285,0.824c0.111,0.074,0.223,0.154,0.333,0.229   c0.393,0.27,0.782,0.545,1.165,0.829c0.117,0.086,0.232,0.174,0.348,0.262c0.378,0.287,0.751,0.58,1.118,0.88   c0.11,0.09,0.22,0.179,0.33,0.271c0.275,0.23,0.544,0.467,0.813,0.704c0.282,0.248,0.56,0.5,0.834,0.755   c0.229,0.214,0.457,0.43,0.681,0.649c0.244,0.238,0.483,0.481,0.72,0.725c0.234,0.241,0.467,0.482,0.694,0.728   c0.216,0.233,0.425,0.472,0.634,0.71c0.231,0.262,0.462,0.524,0.686,0.792c0.199,0.239,0.389,0.483,0.582,0.726   c0.217,0.274,0.438,0.545,0.648,0.824c0.207,0.275,0.403,0.557,0.602,0.837c0.181,0.254,0.367,0.504,0.543,0.762   c0.366,0.541,0.719,1.089,1.056,1.646c0.063,0.104,0.12,0.212,0.182,0.316c0.282,0.476,0.559,0.954,0.821,1.441   c0.073,0.135,0.139,0.273,0.21,0.409c0.243,0.465,0.482,0.932,0.706,1.406c0.065,0.137,0.124,0.277,0.188,0.415   c0.22,0.479,0.434,0.962,0.635,1.45c0.056,0.136,0.108,0.275,0.163,0.412c0.196,0.494,0.385,0.99,0.562,1.492   c0.049,0.14,0.095,0.28,0.143,0.421c0.17,0.502,0.331,1.007,0.481,1.515c0.044,0.148,0.085,0.297,0.127,0.445   c0.141,0.5,0.272,1.003,0.393,1.509c0.04,0.166,0.078,0.333,0.116,0.5c0.109,0.486,0.209,0.975,0.3,1.465   c0.036,0.193,0.071,0.387,0.104,0.581c0.079,0.462,0.147,0.926,0.209,1.392c0.03,0.227,0.061,0.454,0.087,0.683   c0.05,0.43,0.089,0.863,0.124,1.296c0.022,0.265,0.044,0.529,0.061,0.795c0.025,0.403,0.039,0.808,0.051,1.213   c0.006,0.198,0.012,0.397,0.015,0.596c-6.421-2.466-11.963-6.92-15.824-12.871c-1.269-1.955-3.375-3.209-5.698-3.394   c-2.326-0.183-4.601,0.721-6.162,2.452c-9.178,10.17-22.282,16.002-35.953,16.002c-5.155,0-10.19-0.801-15.026-2.385   c0.004-0.206,0.008-0.411,0.016-0.616c0.012-0.33,0.025-0.659,0.045-0.986c0.02-0.336,0.048-0.67,0.077-1.004   c0.028-0.326,0.057-0.651,0.093-0.974c0.037-0.33,0.081-0.658,0.126-0.986c0.044-0.323,0.089-0.646,0.141-0.966   c0.052-0.323,0.112-0.643,0.172-0.963c0.06-0.32,0.121-0.639,0.189-0.956c0.068-0.316,0.143-0.63,0.218-0.944   c0.076-0.314,0.151-0.629,0.235-0.94c0.083-0.31,0.173-0.618,0.263-0.925c0.091-0.309,0.181-0.618,0.279-0.923   c0.097-0.304,0.202-0.604,0.307-0.904c0.105-0.303,0.21-0.606,0.323-0.906c0.111-0.296,0.23-0.588,0.348-0.88   c0.12-0.298,0.24-0.596,0.367-0.89c0.124-0.287,0.256-0.571,0.387-0.855c0.134-0.291,0.268-0.583,0.409-0.87   c0.138-0.28,0.283-0.556,0.427-0.833c0.148-0.283,0.294-0.567,0.449-0.846c0.15-0.272,0.308-0.539,0.465-0.807   c0.161-0.276,0.321-0.552,0.489-0.824c0.162-0.263,0.332-0.521,0.501-0.78c0.174-0.268,0.347-0.536,0.527-0.8   c0.174-0.254,0.355-0.503,0.535-0.752c0.187-0.26,0.372-0.52,0.565-0.775c0.186-0.245,0.379-0.484,0.57-0.725   c0.198-0.25,0.395-0.501,0.6-0.745c0.197-0.235,0.401-0.465,0.602-0.695c0.211-0.24,0.419-0.483,0.635-0.718   c0.207-0.225,0.421-0.444,0.634-0.664c0.221-0.23,0.441-0.462,0.668-0.687c0.218-0.216,0.443-0.424,0.666-0.635   c0.232-0.219,0.462-0.44,0.699-0.654c0.229-0.206,0.464-0.404,0.698-0.605c0.241-0.207,0.479-0.416,0.725-0.618   c0.24-0.196,0.487-0.385,0.732-0.575c0.249-0.194,0.496-0.392,0.75-0.58c0.251-0.186,0.508-0.363,0.763-0.543   c0.257-0.182,0.512-0.366,0.773-0.541c0.262-0.176,0.53-0.342,0.797-0.511c0.264-0.168,0.525-0.339,0.793-0.501   c0.271-0.164,0.549-0.318,0.825-0.475c0.271-0.155,0.54-0.314,0.816-0.463c0.281-0.152,0.568-0.293,0.853-0.438   c0.278-0.141,0.553-0.287,0.834-0.422c0.292-0.14,0.59-0.268,0.886-0.401c0.282-0.127,0.562-0.258,0.847-0.378   c0.302-0.127,0.611-0.242,0.917-0.362c0.286-0.112,0.57-0.229,0.859-0.335c0.314-0.115,0.634-0.216,0.952-0.323   c0.288-0.097,0.574-0.199,0.865-0.289c0.326-0.101,0.658-0.188,0.988-0.281c0.289-0.081,0.576-0.169,0.868-0.244   c0.338-0.086,0.68-0.159,1.021-0.236c0.29-0.066,0.577-0.139,0.87-0.199c0.359-0.073,0.722-0.131,1.084-0.194   c0.28-0.049,0.557-0.105,0.838-0.148c0.386-0.059,0.776-0.101,1.166-0.149c0.264-0.032,0.525-0.073,0.79-0.099   c0.423-0.043,0.851-0.068,1.278-0.098c0.236-0.016,0.469-0.041,0.706-0.053c0.665-0.034,1.335-0.051,2.008-0.051   C159.579,299.509,160.305,299.533,161.027,299.573z M158.849,400.795c-21.697,0-39.349-17.652-39.349-39.35v-7.831   c4.897,1.198,9.925,1.821,15.046,1.821c14.968,0,29.416-5.335,40.773-14.862c6.217,6.541,14.124,11.168,22.879,13.381v7.49   C198.198,383.143,180.546,400.795,158.849,400.795z"/>
</g>















</svg>
