<?xml version="1.0" encoding="iso-8859-1"?>
<!-- Generator: Adobe Illustrator 19.0.0, SVG Export Plug-In . SVG Version: 6.00 Build 0)  -->
<svg xmlns="http://www.w3.org/2000/svg" xmlns:xlink="http://www.w3.org/1999/xlink" version="1.1" id="Capa_1" x="0px" y="0px" viewBox="0 0 512 512" style="enable-background:new 0 0 512 512;" xml:space="preserve" width="512" height="512">
<g>
	<path d="M129.412,188.8c1.382,6.115,3.275,12.113,5.68,17.959c1.575,3.829,5.957,5.663,9.789,4.082   c3.83-1.575,5.658-5.958,4.082-9.789c-2.764-6.719-4.75-13.67-5.952-20.788c-0.023-0.17-0.046-0.34-0.08-0.505   c-0.855-5.236-1.292-10.56-1.292-15.949v-31.891c0-0.013,0.002-0.025,0.002-0.039s-0.002-0.026-0.002-0.039v-14.503   c19.365-2.423,36.166-14.116,45.183-31.249c5.892,4.317,12.411,8.303,19.503,11.885c25.989,13.124,58.725,20.353,92.176,20.353   c13.283,0,26.379-1.126,39.065-3.314v48.796c0,54.018-43.946,97.965-97.964,97.965c-29.414,0-57.011-13.047-75.714-35.795   c-2.63-3.2-7.358-3.662-10.556-1.03c-3.2,2.63-3.661,7.356-1.03,10.556c21.563,26.228,53.383,41.27,87.3,41.27   c53.703,0,98.769-37.671,110.173-87.975h11.536c8.614,0,16.704-3.354,22.773-9.437c6.085-6.086,9.437-14.174,9.437-22.773   c0-17.761-14.449-32.21-32.21-32.21h-8.745v-11.416c0-2.494-0.09-4.967-0.25-7.422c-0.001-0.015,0-0.029-0.001-0.044   c-0.003-0.046-0.008-0.092-0.011-0.138c-0.053-0.8-0.115-1.597-0.186-2.392c-0.013-0.146-0.026-0.292-0.039-0.437   c-0.07-0.757-0.147-1.511-0.231-2.264c-0.021-0.186-0.042-0.371-0.064-0.557c-0.084-0.714-0.174-1.426-0.271-2.135   c-0.03-0.224-0.062-0.447-0.094-0.67c-0.096-0.672-0.197-1.343-0.305-2.011c-0.042-0.26-0.086-0.519-0.129-0.778   c-0.107-0.634-0.218-1.266-0.335-1.896c-0.054-0.29-0.111-0.579-0.167-0.869c-0.116-0.599-0.236-1.197-0.362-1.792   c-0.067-0.318-0.138-0.635-0.208-0.952c-0.125-0.565-0.251-1.13-0.384-1.692c-0.082-0.344-0.167-0.687-0.252-1.03   c-0.132-0.535-0.265-1.071-0.405-1.603c-0.095-0.364-0.196-0.726-0.295-1.088c-0.139-0.51-0.279-1.019-0.425-1.526   c-0.109-0.378-0.224-0.753-0.336-1.128c-0.148-0.491-0.294-0.983-0.448-1.472c-0.119-0.379-0.245-0.755-0.368-1.132   c-0.158-0.484-0.315-0.968-0.479-1.449c-0.125-0.367-0.258-0.731-0.387-1.096c-0.173-0.488-0.344-0.978-0.523-1.463   c-0.124-0.335-0.254-0.667-0.381-1c-0.195-0.513-0.389-1.028-0.591-1.537c-0.101-0.254-0.208-0.506-0.311-0.759   c-0.238-0.587-0.476-1.174-0.723-1.756c-0.019-0.043-0.038-0.086-0.057-0.13C328.37,33.2,295.473,6.966,256.02,1.197   c-0.022-0.003-0.045-0.006-0.068-0.01c-0.853-0.124-1.708-0.24-2.566-0.345c-0.124-0.015-0.249-0.028-0.373-0.043   c-0.767-0.091-1.535-0.178-2.307-0.254c-0.226-0.022-0.453-0.04-0.68-0.061c-0.678-0.062-1.356-0.124-2.037-0.174   c-0.345-0.026-0.692-0.044-1.039-0.066c-0.573-0.037-1.145-0.076-1.72-0.105c-0.504-0.025-1.011-0.04-1.517-0.058   c-0.426-0.015-0.85-0.036-1.277-0.047C241.496,0.012,240.551,0,239.604,0c-0.997,0-1.991,0.014-2.981,0.04   c-0.046,0.001-0.092,0.004-0.138,0.005c-19.298,0.526-37.404,5.914-53.133,14.983c-3.636,2.087-7.157,4.381-10.552,6.868   c-0.233,0.144-0.461,0.299-0.682,0.472c-0.24,0.188-0.48,0.367-0.72,0.547l-0.182,0.137c-0.406,0.305-0.812,0.61-1.137,0.872   l-0.521,0.411c-0.181,0.142-0.362,0.284-0.541,0.43c-0.101,0.078-0.239,0.188-0.399,0.326c-0.205,0.164-0.41,0.332-0.614,0.504   c-0.083,0.063-0.165,0.127-0.245,0.192c-0.374,0.308-0.735,0.613-1.097,0.93c-0.243,0.201-0.485,0.407-0.721,0.608l-0.174,0.148   c-0.15,0.129-0.292,0.253-0.434,0.38c-0.422,0.354-0.833,0.719-1.238,1.098l-0.21,0.188h-0.001   c-0.127,0.11-0.269,0.235-0.422,0.382c-0.127,0.113-0.254,0.231-0.381,0.354c-0.27,0.244-0.544,0.495-0.814,0.752   c-0.183,0.163-0.328,0.306-0.43,0.407c-0.019,0.018-0.037,0.036-0.056,0.054c-0.114,0.104-0.262,0.24-0.427,0.408   c-0.116,0.113-0.23,0.226-0.344,0.338c-0.376,0.349-0.745,0.714-1.106,1.076c-0.072,0.07-0.19,0.185-0.334,0.338   c-0.112,0.109-0.222,0.221-0.33,0.335c-0.493,0.485-0.981,0.987-1.513,1.555l-0.55,0.593c-0.264,0.276-0.512,0.556-0.767,0.833   c-0.25,0.272-0.506,0.54-0.754,0.815c-0.012,0.013-0.021,0.029-0.033,0.042c-0.478,0.521-0.938,1.05-1.404,1.587   c-0.428,0.482-0.845,0.968-1.243,1.46c-0.286,0.331-0.556,0.66-0.806,0.969c-0.286,0.344-0.562,0.687-0.827,1.029   c-0.351,0.428-0.689,0.856-1.007,1.283c-0.288,0.357-0.56,0.708-0.822,1.065c-0.349,0.452-0.688,0.905-1.009,1.356   c-0.245,0.318-0.48,0.643-0.699,0.948c-0.515,0.718-1.028,1.446-1.577,2.253c-0.023,0.034-0.062,0.091-0.108,0.165   c-0.322,0.465-0.632,0.935-0.94,1.406c-0.176,0.263-0.349,0.529-0.519,0.795l-0.182,0.283c-0.543,0.831-1.029,1.611-1.483,2.38   c-0.462,0.743-0.897,1.496-1.349,2.279c-0.357,0.602-0.698,1.213-1.027,1.834c-0.208,0.351-0.402,0.709-0.595,1.079   c-0.312,0.572-0.623,1.164-0.924,1.745c-0.018,0.032-0.034,0.064-0.05,0.097l-0.083,0.167c-0.404,0.788-0.788,1.566-1.188,2.387   c-0.397,0.827-0.784,1.655-1.173,2.52c-0.354,0.782-0.706,1.564-1.054,2.396l-0.046,0.116c-0.364,0.848-0.707,1.696-1.045,2.567   c-0.312,0.795-0.622,1.59-0.927,2.433l-0.09,0.242c-0.256,0.698-0.51,1.408-0.712,2.017c-0.355,1.025-0.691,2.049-1.027,3.126   c-0.24,0.786-0.482,1.584-0.714,2.387c-0.073,0.252-0.144,0.504-0.206,0.748c-0.187,0.657-0.364,1.324-0.531,1.991   c-0.264,0.993-0.508,1.989-0.758,3.062c-0.169,0.762-0.339,1.532-0.487,2.261c-0.02,0.093-0.035,0.185-0.054,0.278   c-0.062,0.3-0.116,0.602-0.176,0.903c-0.222,1.117-0.422,2.219-0.601,3.309c-0.094,0.563-0.189,1.125-0.274,1.69   c0,0.003-0.001,0.006-0.001,0.009c-0.115,0.724-0.214,1.455-0.311,2.18l-0.028,0.211c-0.006,0.051-0.012,0.101-0.018,0.151   c-0.007,0.053-0.012,0.107-0.019,0.16c-0.095,0.745-0.183,1.49-0.261,2.243c-0.016,0.133-0.028,0.265-0.042,0.398   c-0.002,0.026-0.005,0.052-0.008,0.078c-0.011,0.111-0.025,0.222-0.035,0.332c-0.05,0.494-0.086,0.987-0.127,1.48   c-0.157,1.836-0.269,3.684-0.336,5.543c-0.012,0.318-0.03,0.635-0.039,0.952c0,0.022-0.001,0.046-0.001,0.068   c-0.001,0.03-0.001,0.061-0.002,0.091c-0.002,0.086-0.004,0.171-0.007,0.257c0,0.042-0.003,0.081-0.003,0.123   c0,0.008,0.001,0.016,0.001,0.024c-0.02,0.875-0.033,1.751-0.033,2.63v11.416h-8.748c-17.761,0-32.21,14.449-32.21,32.21   c0,8.6,3.352,16.688,9.431,22.767c6.075,6.09,14.165,9.443,22.779,9.443H129.412z M142.248,102.076   c0.056-0.507,0.11-1.015,0.174-1.519c0.002-0.018,0.004-0.037,0.007-0.055c0-0.003,0.001-0.007,0.001-0.011   c0.097-0.759,0.204-1.516,0.319-2.27c0.047-0.322,0.108-0.661,0.16-0.988c2.422-14.94,8.231-28.758,16.617-40.636   c3.938,6.883,9.128,13.441,15.432,19.536C169.005,89.767,156.745,99.426,142.248,102.076z M189.218,68.937   c-0.366-0.389-0.776-0.741-1.226-1.048c-8.029-7.154-14.191-15.151-18.018-23.763c6.019-6.088,12.829-11.392,20.26-15.746   c0.255-0.149,0.508-0.302,0.764-0.448c0.099-0.057,0.199-0.111,0.299-0.167c13.894-7.873,29.633-12.323,45.845-12.733   c0.818-0.02,1.638-0.031,2.461-0.031c1.452,0,2.895,0.038,4.333,0.101c0.127,0.005,0.256,0.008,0.383,0.014   c1.403,0.067,2.799,0.167,4.187,0.293c0.132,0.012,0.264,0.023,0.396,0.035c1.417,0.135,2.827,0.299,4.227,0.494   c0.066,0.009,0.132,0.019,0.198,0.028c28.183,3.988,52.718,20.068,67.927,42.931c0.013,0.019,0.025,0.038,0.038,0.057   c0.788,1.186,1.55,2.39,2.287,3.612c0.016,0.027,0.032,0.055,0.048,0.082c1.445,2.401,2.787,4.872,4.026,7.402   c0.049,0.1,0.1,0.198,0.148,0.298c0.565,1.165,1.104,2.346,1.624,3.537c0.085,0.194,0.171,0.387,0.255,0.582   c0.493,1.149,0.962,2.311,1.412,3.482c0.089,0.232,0.178,0.465,0.266,0.698c0.438,1.166,0.854,2.343,1.248,3.53   c0.076,0.229,0.15,0.459,0.224,0.689c0.393,1.216,0.767,2.441,1.114,3.677c0.049,0.176,0.095,0.353,0.143,0.529   c0.358,1.307,0.696,2.623,1.001,3.951c0.012,0.053,0.023,0.106,0.035,0.159c0.649,2.852,1.174,5.751,1.567,8.693   c0.004,0.027,0.008,0.053,0.011,0.08c-12.364,2.239-25.183,3.372-38.2,3.372C254.024,103.327,213.545,89.878,189.218,68.937z    M361.313,139.38c9.489,0,17.21,7.721,17.21,17.21c0,4.594-1.791,8.914-5.05,12.173c-3.24,3.248-7.56,5.037-12.16,5.037h-9.192   c0.29-3.293,0.447-6.623,0.447-9.99v-24.43H361.313z M100.682,156.59c0-9.489,7.721-17.21,17.21-17.21h8.748v24.43   c0,3.353,0.153,6.684,0.441,9.99h-9.189c-4.601,0-8.92-1.789-12.166-5.044C102.473,165.504,100.682,161.184,100.682,156.59z"/>
	<path d="M221.9,497H120.045V392.892c0-11.092,2.146-21.857,6.379-31.998c1.596-3.822-0.209-8.214-4.032-9.81   c-3.818-1.597-8.215,0.209-9.81,4.032c-5.001,11.98-7.537,24.689-7.537,37.775V504.5c0,4.143,3.357,7.5,7.5,7.5H221.9   c4.143,0,7.5-3.357,7.5-7.5S226.043,497,221.9,497z"/>
	<path d="M239.604,136.119c-4.143,0-7.5,3.357-7.5,7.5v44.927c0,4.143,3.357,7.5,7.5,7.5h16.903c4.143,0,7.5-3.357,7.5-7.5   s-3.357-7.5-7.5-7.5h-9.403v-37.427C247.104,139.477,243.746,136.119,239.604,136.119z"/>
	<path d="M408.781,371.418H264.447l-4.916-35.201c9.802-5.723,16.573-15.325,18.707-26.413c0.262,0.007,0.525,0.006,0.787,0.016   c0.583,0.021,1.164,0.057,1.745,0.089c0.429,0.024,0.859,0.046,1.288,0.078c0.629,0.045,1.256,0.101,1.882,0.16   c0.362,0.035,0.724,0.07,1.086,0.109c0.668,0.073,1.336,0.151,2,0.239c0.291,0.039,0.58,0.082,0.87,0.124   c0.719,0.104,1.438,0.21,2.152,0.332c0.136,0.023,0.271,0.051,0.406,0.075c2.306,0.406,4.584,0.912,6.833,1.506   c0.45,0.12,0.901,0.236,1.349,0.363c0.457,0.129,0.91,0.267,1.364,0.403c0.602,0.182,1.203,0.368,1.802,0.564   c0.19,0.062,0.38,0.126,0.569,0.189l-16.621,33.038c-1.861,3.7-0.371,8.209,3.329,10.071c3.704,1.862,8.21,0.37,10.071-3.329   l16.985-33.762c13.699,7.544,25.245,18.937,32.996,33.204c1.359,2.503,3.936,3.921,6.597,3.921c1.209,0,2.436-0.293,3.573-0.911   c3.64-1.977,4.987-6.53,3.01-10.17c-10.53-19.383-27.003-34.261-46.45-42.898c-0.013-0.006-0.025-0.013-0.038-0.019   c-0.039-0.018-0.079-0.033-0.118-0.051c-0.687-0.304-1.377-0.6-2.071-0.888c-0.191-0.079-0.383-0.156-0.574-0.234   c-0.65-0.265-1.3-0.528-1.956-0.779c-0.381-0.146-0.764-0.283-1.146-0.424c-0.714-0.263-1.43-0.521-2.151-0.768   c-0.692-0.238-1.386-0.47-2.082-0.692c-0.244-0.077-0.49-0.152-0.734-0.228c-0.828-0.257-1.659-0.502-2.492-0.737   c-0.115-0.032-0.229-0.065-0.343-0.097c-6.309-1.749-12.769-2.851-19.338-3.3c-0.059-0.004-0.119-0.008-0.178-0.012   c-1.013-0.067-2.029-0.12-3.047-0.156c-0.101-0.004-0.202-0.008-0.304-0.012c-1.084-0.036-2.169-0.06-3.258-0.06h-4.57h-63.72   h-4.57c-13.802,0-27.188,2.838-39.786,8.437c-0.19,0.084-0.373,0.182-0.554,0.281c-11.936,5.385-22.81,13.139-31.836,22.935   c-2.807,3.046-2.613,7.791,0.434,10.598c3.045,2.807,7.79,2.613,10.598-0.434c6.13-6.652,13.266-12.19,21.063-16.479l47.086,93.644   c0.006,0.012,0.009,0.025,0.015,0.038l22.711,45.16c0.913,1.815,2.508,3.137,4.378,3.748c0.087,0.028,0.17,0.068,0.259,0.094   c0.107,0.03,0.22,0.044,0.329,0.07c0.563,0.134,1.141,0.219,1.734,0.219c1.946,0,3.766-0.766,5.135-2.057v33.451   c0,9.67,7.866,17.536,17.536,17.536h146.508c9.67,0,17.537-7.866,17.537-17.536v-105.51   C426.318,379.284,418.451,371.418,408.781,371.418z M248.583,324.91c-3.212,1.276-5.137,4.583-4.658,8.007l6.079,43.529   c-3.246,3.185-5.267,7.612-5.267,12.508v39.705l-5.135,10.214l-14.959-29.75l10.637-76.207c0.479-3.424-1.446-6.731-4.659-8.007   c-6.922-2.75-12.03-8.345-14.211-15.146h46.385C260.613,316.565,255.505,322.16,248.583,324.91z M194.397,310.234   c0.146-0.015,0.292-0.03,0.439-0.044c0.948-0.096,1.898-0.172,2.851-0.236c0.491-0.032,0.982-0.065,1.475-0.089   c0.431-0.021,0.863-0.037,1.295-0.051c0.169-0.005,0.339-0.006,0.509-0.01c2.134,11.088,8.905,20.69,18.709,26.413l-6.885,49.332   l-35.941-71.479C182.52,312.172,188.402,310.875,194.397,310.234z M411.318,494.464c0,1.398-1.138,2.536-2.537,2.536H262.273   c-1.398,0-2.536-1.138-2.536-2.536v-64.096c0-0.068,0.002-0.137,0-0.206v-41.208c0-1.398,1.138-2.536,2.536-2.536h146.508   c1.399,0,2.537,1.138,2.537,2.536V494.464z"/>
	<path d="M338.161,414.018c-3.589-2.07-8.175-0.844-10.245,2.745l-13.313,23.059c-2.071,3.587-0.842,8.174,2.745,10.245   c1.182,0.682,2.471,1.006,3.743,1.006c2.592,0,5.113-1.345,6.502-3.751l13.313-23.059   C342.978,420.676,341.748,416.089,338.161,414.018z"/>
	<path d="M353.707,433.351c-3.586-2.071-8.175-0.844-10.245,2.745l-13.313,23.059c-2.071,3.587-0.842,8.174,2.745,10.245   c1.181,0.682,2.471,1.006,3.743,1.006c2.592,0,5.113-1.345,6.502-3.751l13.313-23.059   C358.523,440.009,357.294,435.422,353.707,433.351z"/>
	<path d="M176.196,410.882c4.143,0,7.5-3.357,7.5-7.5s-3.357-7.5-7.5-7.5h-32c-4.143,0-7.5,3.357-7.5,7.5s3.357,7.5,7.5,7.5H176.196   z"/>
</g>















</svg>
