<?xml version="1.0" encoding="iso-8859-1"?>
<!-- Generator: Adobe Illustrator 19.0.0, SVG Export Plug-In . SVG Version: 6.00 Build 0)  -->
<svg version="1.1" id="Layer_1" xmlns="http://www.w3.org/2000/svg" xmlns:xlink="http://www.w3.org/1999/xlink" x="0px" y="0px"
	 viewBox="0 0 512 512" style="enable-background:new 0 0 512 512;" xml:space="preserve">
<g>
	<g>
		<g>
			<path d="M214.374,120.715h83.252c5.747,0,10.406-4.659,10.406-10.406V88.455c0-15.783-9.061-29.48-22.249-36.189
				c1.916-3.894,2.997-8.27,2.997-12.895v-10.06C288.781,13.149,275.632,0,259.469,0h-6.938c-16.162,0-29.311,13.149-29.311,29.312
				v10.06c0,4.625,1.08,9.001,2.997,12.895c-13.188,6.709-22.249,20.406-22.249,36.189v21.854
				C203.967,116.056,208.626,120.715,214.374,120.715z M244.033,29.312c0-4.686,3.813-8.499,8.499-8.499h6.938
				c4.686,0,8.499,3.813,8.499,8.499v10.06c0,4.686-3.813,8.499-8.499,8.499h-6.938c-4.686,0-8.499-3.813-8.499-8.499V29.312z
				 M224.781,88.455c0-10.903,8.869-19.772,19.772-19.772h22.894c10.903,0,19.772,8.87,19.772,19.772v11.447h-62.439V88.455z"/>
			<path d="M297.626,391.285h-83.252c-5.747,0-10.406,4.659-10.406,10.406v21.854c0,15.782,9.061,29.48,22.249,36.189
				c-1.916,3.894-2.997,8.27-2.997,12.895v10.06c0,16.162,13.15,29.312,29.312,29.312h6.938c16.162,0,29.312-13.149,29.312-29.312
				v-10.06c0-4.625-1.08-9.001-2.997-12.895c13.187-6.709,22.248-20.406,22.248-36.189v-21.854
				C308.033,395.944,303.374,391.285,297.626,391.285z M267.967,482.688c0,4.686-3.813,8.499-8.499,8.499h-6.938
				c-4.686,0-8.499-3.813-8.499-8.499v-10.06c0-4.686,3.813-8.499,8.499-8.499h6.938c4.686,0,8.499,3.813,8.499,8.499V482.688z
				 M287.22,423.545c0,10.903-8.87,19.772-19.772,19.772h-22.894c-10.903,0-19.772-8.87-19.772-19.772v-11.447h62.439V423.545z"/>
			<path d="M393.973,224.407c1.38,2.39,3.653,4.135,6.319,4.848c0.887,0.237,1.792,0.355,2.693,0.355
				c1.812,0,3.608-0.474,5.203-1.394l18.926-10.927c9.388-5.42,16.104-14.173,18.91-24.644c1.126-4.202,1.557-8.478,1.332-12.7
				c4.4-0.3,8.708-1.601,12.64-3.87l8.711-5.029c6.781-3.915,11.631-10.235,13.658-17.798c2.026-7.563,0.987-15.462-2.928-22.243
				l-3.469-6.008c-3.915-6.781-10.235-11.63-17.798-13.657c-7.561-2.025-15.461-0.987-22.243,2.928l-8.711,5.029
				c-3.94,2.274-7.221,5.365-9.682,9.035c-12.402-8.058-28.789-9.054-42.452-1.166l-18.926,10.927
				c-4.977,2.873-6.683,9.238-3.809,14.215L393.973,224.407z M433.662,142.482c0.587-2.193,1.994-4.025,3.96-5.16l8.712-5.029
				c1.335-0.771,2.794-1.136,4.234-1.136c2.94,0,5.803,1.525,7.374,4.248l3.468,6.008c1.134,1.966,1.436,4.256,0.849,6.449
				c-0.588,2.193-1.994,4.025-3.96,5.16l-8.712,5.029c-4.059,2.345-9.266,0.949-11.609-3.111l-3.469-6.009
				C433.377,146.965,433.075,144.674,433.662,142.482z M385.488,145.19c9.442-5.452,21.558-2.204,27.01,7.238l3.988,6.907
				c0,0.001,0.001,0.002,0.001,0.002l3.469,6.009c0.001,0.001,0.002,0.003,0.002,0.004l3.987,6.906
				c5.451,9.442,2.205,21.558-7.238,27.01l-9.913,5.724l-31.22-54.074L385.488,145.19z"/>
			<path d="M118.027,287.593c-1.38-2.39-3.653-4.135-6.319-4.848c-2.668-0.716-5.507-0.34-7.896,1.04l-18.926,10.927
				c-9.388,5.42-16.104,14.173-18.91,24.644c-1.126,4.204-1.557,8.481-1.332,12.705c-4.4,0.3-8.708,1.596-12.641,3.866l-8.711,5.029
				c-6.781,3.915-11.631,10.235-13.657,17.798c-2.026,7.563-0.987,15.462,2.928,22.243l3.469,6.008
				c3.915,6.781,10.236,11.63,17.798,13.658c2.526,0.676,5.088,1.011,7.634,1.011c5.078,0,10.092-1.332,14.609-3.94l8.711-5.029
				c3.932-2.27,7.209-5.353,9.669-9.014c3.545,2.306,7.465,4.073,11.669,5.199c3.497,0.937,7.045,1.401,10.57,1.401
				c7.033,0,13.974-1.844,20.227-5.455l18.926-10.927c4.977-2.873,6.683-9.238,3.809-14.215L118.027,287.593z M78.338,369.518
				c-0.588,2.193-1.994,4.025-3.96,5.16l-8.712,5.029c-4.059,2.345-9.266,0.949-11.609-3.111l-3.468-6.008
				c-1.135-1.966-1.436-4.256-0.849-6.449c0.587-2.193,1.994-4.025,3.96-5.16l8.712-5.029c1.335-0.771,2.794-1.136,4.234-1.136
				c2.94,0,5.803,1.525,7.374,4.248l3.468,6.008C78.623,365.035,78.925,367.326,78.338,369.518z M126.512,366.81
				c-4.574,2.64-9.903,3.343-15.004,1.975c-5.101-1.366-9.365-4.639-12.006-9.213l-11.447-19.828
				c-5.451-9.442-2.205-21.558,7.238-27.01l9.913-5.724l31.219,54.074L126.512,366.81z"/>
			<path d="M482.365,358.753c-2.026-7.563-6.877-13.883-13.657-17.797l-8.712-5.029c-3.939-2.274-8.257-3.57-12.666-3.867
				c0.777-14.771-6.553-29.46-20.217-37.348l-18.926-10.927c-2.389-1.38-5.228-1.753-7.896-1.04
				c-2.666,0.715-4.939,2.458-6.319,4.848l-41.626,72.098c-2.874,4.977-1.169,11.342,3.809,14.215l18.926,10.927
				c6.376,3.681,13.343,5.429,20.224,5.429c7.866,0,15.617-2.288,22.233-6.587c2.46,3.667,5.74,6.755,9.677,9.028l8.712,5.029
				c4.516,2.608,9.529,3.94,14.609,3.94c2.545,0,5.11-0.335,7.634-1.012c7.562-2.026,13.883-6.877,17.798-13.657l3.469-6.008
				C483.352,374.215,484.392,366.316,482.365,358.753z M423.945,339.745l-11.447,19.828c-5.452,9.44-17.568,12.687-27.01,7.238
				l-9.913-5.724l31.22-54.074l9.913,5.724c4.574,2.641,7.845,6.905,9.213,12.006C427.287,329.842,426.586,335.172,423.945,339.745z
				 M461.412,370.589l-3.469,6.008c-2.343,4.059-7.549,5.455-11.609,3.111l-8.712-5.031c-1.966-1.134-3.372-2.967-3.96-5.16
				c-0.587-2.193-0.286-4.483,0.849-6.45l3.468-6.009c1.572-2.722,4.434-4.246,7.374-4.246c1.441,0,2.9,0.366,4.235,1.136
				l8.712,5.031c1.966,1.134,3.372,2.967,3.96,5.16C462.849,366.333,462.547,368.623,461.412,370.589z"/>
			<path d="M43.292,171.044l8.712,5.029c3.94,2.275,8.255,3.577,12.665,3.873c-0.775,14.769,6.556,29.455,20.217,37.342
				l18.926,10.927c1.596,0.921,3.393,1.394,5.203,1.394c0.901,0,1.807-0.118,2.693-0.355c2.666-0.715,4.939-2.458,6.319-4.848
				l41.626-72.098c2.874-4.977,1.169-11.342-3.809-14.215l-18.926-10.927c-13.664-7.889-30.05-6.893-42.452,1.166
				c-2.461-3.67-5.742-6.76-9.681-9.034l-8.712-5.029c-6.781-3.914-14.679-4.953-22.243-2.928
				c-7.562,2.026-13.883,6.877-17.798,13.657l-3.469,6.008c-3.915,6.781-4.955,14.679-2.928,22.243
				C31.661,160.812,36.511,167.131,43.292,171.044z M88.055,172.255l11.447-19.828c2.641-4.574,6.905-7.845,12.006-9.213
				c1.703-0.456,3.432-0.683,5.15-0.683c3.426,0,6.808,0.899,9.854,2.658l9.913,5.724l-31.219,54.074l-9.913-5.724
				c-4.574-2.641-7.845-6.905-9.213-12.006C84.713,182.158,85.414,176.828,88.055,172.255z M50.588,141.41l3.468-6.008
				c2.344-4.059,7.552-5.454,11.609-3.11l8.712,5.03c1.966,1.134,3.372,2.967,3.96,5.16c0.587,2.193,0.286,4.483-0.849,6.449
				l-3.468,6.008c-2.343,4.059-7.549,5.455-11.609,3.111l-8.712-5.031c-1.966-1.134-3.372-2.967-3.96-5.16
				C49.151,145.667,49.453,143.377,50.588,141.41z"/>
			<path d="M381.244,265.224v-18.449c0-1.826-0.481-3.621-1.394-5.203l-49.431-85.616c-0.913-1.582-2.227-2.896-3.809-3.809
				l-15.976-9.224c-1.582-0.914-3.377-1.394-5.203-1.394h-98.862c-1.826,0-3.621,0.481-5.203,1.394l-15.977,9.224
				c-1.582,0.913-2.896,2.227-3.809,3.809l-49.431,85.616c-0.914,1.582-1.394,3.377-1.394,5.203v18.449
				c0,1.826,0.481,3.621,1.394,5.203l49.431,85.616c0.913,1.582,2.227,2.896,3.809,3.809l15.977,9.224
				c1.582,0.914,3.377,1.394,5.203,1.394h98.862c1.826,0,3.621-0.481,5.203-1.394l15.977-9.224c1.582-0.913,2.896-2.227,3.809-3.809
				l49.431-85.616C380.764,268.846,381.244,267.051,381.244,265.224z M360.431,262.435L360.431,262.435l-46.642,80.788
				l-11.147,6.435h-93.285l-11.147-6.435l-46.642-80.788v-12.871l46.642-80.788l11.147-6.435h93.285l11.147,6.435l46.642,80.788
				V262.435z"/>
			<path d="M230.878,308.033h-4.919l-2.459-4.259c-2.873-4.978-9.239-6.683-14.215-3.809c-4.977,2.873-6.683,9.238-3.809,14.215
				l5.463,9.463c1.859,3.22,5.294,5.203,9.012,5.203h10.927c5.747,0,10.406-4.659,10.406-10.406S236.625,308.033,230.878,308.033z"
				/>
			<path d="M195.917,256l2.459-4.259c2.874-4.977,1.169-11.342-3.808-14.215c-4.975-2.872-11.341-1.169-14.215,3.809l-5.463,9.463
				c-1.86,3.22-1.86,7.187,0,10.407l5.463,9.463c1.927,3.338,5.425,5.204,9.021,5.204c1.765,0,3.555-0.45,5.194-1.396
				c4.977-2.873,6.683-9.238,3.809-14.215L195.917,256z"/>
			<path d="M209.284,212.036c1.639,0.946,3.428,1.396,5.194,1.396c3.596,0,7.094-1.866,9.021-5.204l2.459-4.259h4.919
				c5.747,0,10.406-4.659,10.406-10.406s-4.659-10.406-10.406-10.406h-10.927c-3.718,0-7.153,1.983-9.012,5.203l-5.463,9.463
				C202.601,202.798,204.307,209.162,209.284,212.036z"/>
			<path d="M301.061,188.358c-1.859-3.22-5.294-5.203-9.012-5.203h-10.927c-5.747,0-10.406,4.659-10.406,10.406
				s4.659,10.406,10.406,10.406h4.919l2.459,4.259c1.927,3.338,5.425,5.205,9.021,5.204c1.765,0,3.555-0.45,5.194-1.396
				c4.977-2.873,6.683-9.238,3.809-14.215L301.061,188.358z"/>
			<path d="M313.623,251.741l2.459,4.259l-2.459,4.259c-2.874,4.977-1.169,11.342,3.809,14.215c1.639,0.946,3.428,1.397,5.194,1.396
				c3.596,0,7.094-1.866,9.021-5.204l5.463-9.463c1.86-3.22,1.86-7.187,0-10.407l-5.463-9.463
				c-2.873-4.978-9.239-6.684-14.215-3.809C312.454,240.399,310.749,246.763,313.623,251.741z"/>
			<path d="M302.716,299.964c-4.976-2.872-11.341-1.168-14.215,3.809l-2.46,4.259h-4.919c-5.748,0-10.406,4.659-10.406,10.406
				s4.659,10.406,10.406,10.406h10.927c3.718,0,7.153-1.983,9.012-5.203l5.463-9.463
				C309.399,309.202,307.693,302.838,302.716,299.964z"/>
			<path d="M289.821,256c0-18.648-15.173-33.821-33.821-33.821c-18.648,0-33.821,15.173-33.821,33.821s15.173,33.821,33.821,33.821
				S289.821,274.648,289.821,256z M256,269.008c-7.173,0-13.008-5.835-13.008-13.008c0-7.173,5.835-13.008,13.008-13.008
				c7.173,0,13.008,5.835,13.008,13.008C269.008,263.173,263.172,269.008,256,269.008z"/>
		</g>
	</g>
</g>
<g>
</g>
<g>
</g>
<g>
</g>
<g>
</g>
<g>
</g>
<g>
</g>
<g>
</g>
<g>
</g>
<g>
</g>
<g>
</g>
<g>
</g>
<g>
</g>
<g>
</g>
<g>
</g>
<g>
</g>
</svg>
